<svg xmlns="http://www.w3.org/2000/svg" id="Layer_2" data-name="Layer 2" viewBox="0 0 840 577">
<defs><style>.cls-1{fill:#324155;}.cls-2{fill:#fff;}.cls-3{fill:#457591;}.cls-4{fill:#80a7be;}.cls-5{fill:#0084c0;}.cls-6{fill:#00aadc;}</style></defs>
<title>asdArtboard 1</title>
<path class="cls-1" d="M116.9-.62H766.75a0,0,0,0,1,0,0v535.1a0,0,0,0,1,0,0H74.11a0,0,0,0,1,0,0V42.17A42.79,42.79,0,0,1,116.9-.62Z"/>
<polyline class="cls-2" points="109.49 500 109.49 33.31 737 33.31 737 500 143.41 500"/>
<path class="cls-3" d="M0,531.28H840a0,0,0,0,1,0,0v9A36.74,36.74,0,0,1,803.26,577H29.61A29.61,29.61,0,0,1,0,547.39V531.28a0,0,0,0,1,0,0Z"/>
<path class="cls-4" d="M471.66,554.14H368.34a22.86,22.86,0,0,1-22.86-22.86h149A22.86,22.86,0,0,1,471.66,554.14Z"/>
<polyline class="cls-5" points="109.49 82 109.49 33.31 737 33.31 737 82 143.41 82"/>
<g id="logo"><circle class="cls-6" cx="420" cy="272.5" r="63.5"/>
<path class="cls-2" d="M420,215.35a57.15,57.15,0,1,0,57.15,57.15A57.21,57.21,0,0,0,420,215.35ZM368.62,272.5a51.11,51.11,0,0,1,4.45-20.91l24.51,67.16a51.39,51.39,0,0,1-29-46.24ZM420,323.89a51.33,51.33,0,0,1-14.52-2.1L420.9,277l15.79,43.27a5.74,5.74,0,0,0,.37.71A51.31,51.31,0,0,1,420,323.89Zm7.08-75.48c3.09-.16,5.88-.49,5.88-.49a2.12,2.12,0,0,0-.33-4.23s-8.32.66-13.7.66c-5,0-13.53-.66-13.53-.66-2.77-.17-3.09,4.07-.32,4.23,0,0,2.62.33,5.39.49l8,21.93-11.25,33.72L388.52,248.4c3.1-.16,5.88-.49,5.88-.49a2.12,2.12,0,0,0-.33-4.23s-8.32.66-13.69.66c-1,0-2.1,0-3.31-.06a51.37,51.37,0,0,1,77.63-9.67c-.22,0-.44,0-.67,0-5,0-8.63,4.4-8.63,9.12,0,4.23,2.45,7.81,5.05,12.05,2,3.42,4.23,7.82,4.23,14.17q0,6.6-3.91,16.61l-5.13,17.12L427.08,248.4Zm18.75,68.5,15.69-45.37a48.5,48.5,0,0,0,3.91-18.41,39.49,39.49,0,0,0-.35-5.28,51.38,51.38,0,0,1-19.25,69.06Z"/></g>
</svg>